<?xml version="1.0" encoding="UTF-8"?>
<svg id="Capa_1" xmlns="http://www.w3.org/2000/svg" version="1.1" viewBox="0 0 1059.43 429.92">
  <!-- Generator: Adobe Illustrator 30.5.1, SVG Export Plug-In . SVG Version: 2.1.4 Build 3)  -->
  <defs>
    <style>
      .st0 {
        fill: #401b6f;
      }
    </style>
  </defs>
  <path class="st0" d="M339.84,112.32v-29.73h17.84v-45.92h33.03v45.92h21.47v29.73h-40.3v3.3c8.26,0,18.83,4.3,18.83,17.18v60.12c0,15.86,4.95,21.8,21.8,21.8h12.22v33.03h-20.81c-29.07,0-46.25-16.52-46.25-46.25v-80.28c0-5.29-3.63-8.92-8.92-8.92h-8.92Z"/>
  <path class="st0" d="M422.81,0h33.03v93.49c0,3.63.66,5.29,2.31,5.29.99,0,2.31-.99,4.29-2.97,13.21-13.55,27.75-16.52,40.63-16.52,33.03,0,53.19,25.44,53.19,69.7v98.77h-33.03v-89.85c0-28.74-15.53-41.62-31.71-41.62-17.51,0-35.68,14.87-35.68,41.29l7.68,90.18h-40.72V0Z"/>
  <path class="st0" d="M582.31,26.76c27.42,0,27.42,40.63,0,40.63s-26.76-40.63,0-40.63ZM565.79,82.59h33.03v165.17h-33.03V82.59Z"/>
  <path class="st0" d="M291.8,429.92c-28.08,0-56.49-16.52-56.49-48.89,0-23.46,14.54-39.97,35.68-51.2-12.55-4.62-21.8-14.87-21.8-29.4,0-26.43,31.71-42.61,63.1-42.61s62.1,15.86,62.1,53.52v114.96h-33.03v-12.22c0-4.29-1.65-4.96-4.62-1.65-10.9,11.56-27.75,17.51-44.93,17.51ZM297.09,400.52c18.17,0,44.27-14.86,44.27-47.57v-18.17c-23.79,6.28-69.7,21.14-69.7,44.59,0,13.55,10.9,21.14,25.44,21.14ZM339.37,307.69c-4.29-9.58-15.53-13.55-26.43-13.55-12.55,0-24.45,5.29-24.45,13.88,0,5.62,5.61,10.9,12.88,9.25,13.21-2.97,26.43-7.27,37.99-9.58Z"/>
  <path class="st0" d="M385.44,261.11h111.66l-64.42,132.14h64.42v33.03h-117.6l64.75-132.14h-58.8v-33.03Z"/>
  <path class="st0" d="M672.24,429.92c-28.08,0-56.49-16.52-56.49-48.89,0-23.46,14.54-39.97,35.68-51.2-12.55-4.62-21.8-14.87-21.8-29.4,0-26.43,31.71-42.61,63.1-42.61s62.1,15.86,62.1,53.52v114.96h-33.03v-12.22c0-4.29-1.65-4.96-4.62-1.65-10.9,11.56-27.75,17.51-44.93,17.51ZM677.53,400.52c18.17,0,44.26-14.86,44.26-47.57v-18.17c-23.79,6.28-69.7,21.14-69.7,44.59,0,13.55,10.9,21.14,25.44,21.14ZM719.81,307.69c-4.3-9.58-15.53-13.55-26.43-13.55-12.55,0-24.45,5.29-24.45,13.88,0,5.62,5.62,10.9,12.88,9.25,13.21-2.97,26.43-7.27,37.99-9.58Z"/>
  <path class="st0" d="M793.9,426.29h-33.03v-165.17h33.03v10.9c0,3.63.66,5.29,2.31,5.29.99,0,2.31-.99,4.3-2.97,13.21-13.55,27.75-16.52,40.63-16.52,33.03,0,53.19,25.44,53.19,69.7v98.77h-33.03v-89.85c0-28.74-15.53-41.62-31.71-41.62-17.51,0-35.68,14.87-35.68,41.29v90.18Z"/>
  <path class="st0" d="M979.89,257.81c108.02,0,104.06,171.78,0,171.78s-108.02-171.78,0-171.78ZM979.56,393.25c58.47,0,58.14-99.1.33-99.1s-58.47,99.1-.33,99.1Z"/>
  <path class="st0" d="M177.25,67.39c27.42,0,27.42-40.63,0-40.63s-27.09,40.63,0,40.63Z"/>
  <path class="st0" d="M239.93,247.76h-33.03V82.59h33.03v10.9c0,3.63.66,5.29,2.31,5.29.99,0,2.31-.99,4.29-2.97,13.21-13.55,27.75-16.52,40.63-16.52,33.03,0,53.19,25.44,53.19,69.7v98.77h-33.03v-89.85c0-28.74-15.53-41.62-31.71-41.62-17.51,0-35.68,14.87-35.68,41.29v90.18Z"/>
  <path class="st0" d="M661.67,251.39c-28.08,0-56.49-16.52-56.49-48.89,0-23.46,14.54-39.97,35.68-51.2-12.55-4.62-21.8-14.87-21.8-29.4,0-26.43,31.71-42.61,63.1-42.61s62.1,15.86,62.1,53.52v114.96h-33.03v-12.22c0-4.29-1.65-4.96-4.62-1.65-10.9,11.56-27.75,17.51-44.93,17.51ZM666.95,221.99c18.17,0,44.26-14.86,44.26-47.57v-18.17c-23.79,6.28-69.7,21.14-69.7,44.59,0,13.55,10.9,21.14,25.44,21.14ZM709.24,129.17c-4.3-9.58-15.53-13.55-26.43-13.55-12.55,0-24.45,5.29-24.45,13.88,0,5.62,5.62,10.9,12.88,9.25,13.21-2.97,26.43-7.27,37.99-9.58Z"/>
  <path class="st0" d="M147.7,242.8c-10.24,4.25-22.78,6.37-37.65,6.37-31.86,0-58.17-11.1-78.92-33.3C10.38,193.67,0,167.6,0,137.68c0-19.5,4.44-37.6,13.32-54.3,8.88-16.7,22.01-30.31,39.39-40.83,17.38-10.52,37.26-15.78,59.66-15.78,12.55,0,24.33,2.13,35.33,6.37v51.26c-10.04-6.37-21.91-9.56-35.62-9.56-17.38,0-31.28,6.33-41.7,18.97-10.43,12.65-15.64,27.18-15.64,43.59s5.31,31.86,15.93,44.6c10.62,12.74,24.52,19.11,41.7,19.11,13.13,0,24.91-3.38,35.33-10.14v51.84Z"/>
  <path class="st0" d="M607.12,423.72c-7.8,3.23-17.35,4.85-28.68,4.85-24.26,0-44.3-8.45-60.11-25.37-15.81-16.91-23.71-36.76-23.71-59.56,0-14.85,3.38-28.64,10.15-41.36,6.76-12.72,16.76-23.09,30-31.1,13.24-8.01,28.38-12.02,45.44-12.02,9.56,0,18.53,1.62,26.91,4.85v39.04c-7.65-4.85-16.69-7.28-27.13-7.28-13.23,0-23.82,4.82-31.76,14.45-7.94,9.63-11.91,20.7-11.91,33.2s4.04,24.26,12.13,33.97c8.09,9.71,18.67,14.56,31.76,14.56,10,0,18.97-2.57,26.91-7.72v39.49Z"/>
  <path class="st0" d="M198.3,387.35h0s-17.06,0-17.06,0v-3.19c6.93,0,14.8-2.9,16.84-12l-2.85-191.89c-7.91-2.57-10.54-8.86-10.54-20.39v-60.12c0-12.42-9.83-16.86-17.94-17.16h-6.01l-5.12,344.41h85.41v-39.65h-42.72Z"/>
</svg>