<?xml version="1.0" encoding="UTF-8"?>
<svg id="Capa_1" xmlns="http://www.w3.org/2000/svg" version="1.1" viewBox="0 0 300 300">
  <!-- Generator: Adobe Illustrator 30.5.1, SVG Export Plug-In . SVG Version: 2.1.4 Build 3)  -->
  <defs>
    <style>
      .st0 {
        fill: #401b6f;
      }
    </style>
  </defs>
  <path class="st0" d="M178.92,256.29c-11.69,4.85-26.01,7.27-42.98,7.27-36.37,0-66.4-12.67-90.09-38.02-23.7-25.34-35.54-55.1-35.54-89.27,0-22.26,5.07-42.92,15.21-61.99,10.14-19.06,25.13-34.6,44.96-46.62,19.84-12.01,42.54-18.02,68.11-18.02,14.32,0,27.77,2.43,40.34,7.27v58.52c-11.46-7.27-25.02-10.91-40.67-10.91-19.84,0-35.71,7.22-47.61,21.65-11.9,14.44-17.85,31.03-17.85,49.76s6.06,36.37,18.18,50.92c12.12,14.55,27.99,21.82,47.61,21.82,14.99,0,28.43-3.85,40.34-11.57v59.18Z"/>
  <path class="st0" d="M284.72,808.4h0s-44.28,0-44.28,0v-8.29c17.97,0,38.43-7.52,43.7-31.15l-7.41-498.06c-20.53-6.68-27.35-22.99-27.35-52.92V61.92c0-32.24-25.51-43.76-46.56-44.54h-15.61l-13.29,893.94h221.68v-102.91h-110.88Z"/>
</svg>